<svg width="60" height="58" viewBox="0 0 60 58" fill="none" xmlns="http://www.w3.org/2000/svg">
<path d="M11.8081 41.0833H53.3332V6.08333H6.66658V45.1232L11.8081 41.0833ZM13.8257 46.9167L0.833252 57.125V3.16667C0.833252 1.55585 2.1391 0.25 3.74992 0.25H56.2499C57.8608 0.25 59.1666 1.55585 59.1666 3.16667V44C59.1666 45.6109 57.8608 46.9167 56.2499 46.9167H13.8257ZM27.0833 32.3333H32.9166V38.1667H27.0833V32.3333ZM19.9879 17.2059C20.9185 12.5268 25.0474 9 29.9999 9C35.6378 9 40.2082 13.5704 40.2082 19.2083C40.2082 24.8463 35.6378 29.4167 29.9999 29.4167H27.0833V23.5833H29.9999C32.4161 23.5833 34.3749 21.6245 34.3749 19.2083C34.3749 16.7921 32.4161 14.8333 29.9999 14.8333C27.8775 14.8333 26.1079 16.3448 25.7089 18.3502L19.9879 17.2059Z" fill="#D9A631"/>
</svg>
