<svg width="170" height="70" viewBox="0 0 170 70" fill="none" xmlns="http://www.w3.org/2000/svg">
<path d="M142.513 4.88078L140.402 17.0656C140.402 17.0656 135.412 13.755 131.462 12.7863C121.432 10.3289 112.264 15.8125 112.264 15.8125C113.162 14.2838 114.255 12.8707 115.508 11.6264C121.938 6.06283 125.156 5.12518 128.253 4.12089C131.008 3.22324 133.946 3.13881 136.803 3.4321C138.78 3.63652 140.696 4.12089 142.518 4.87633M146.25 2.99217C140.665 -0.0962568 133.866 -0.953892 127.32 1.17468C119.97 3.56544 114.571 9.18238 112.18 15.9458C112.18 15.9458 123.129 13.1996 130.879 15.5237C137.603 17.5411 142.766 21.6516 142.766 21.6516L146.25 2.98773V2.99217Z" fill="#D9A631"/>
<path d="M138.816 8.89346C139.793 8.89346 140.585 8.1016 140.585 7.12482C140.585 6.14803 139.793 5.3562 138.816 5.3562C137.839 5.3562 137.047 6.14803 137.047 7.12482C137.047 8.1016 137.839 8.89346 138.816 8.89346Z" fill="white"/>
<path d="M132.195 12.2085L132.568 10.0755L133.355 10.2133L132.964 12.413L132.195 12.2085ZM132.741 9.10678L133.119 6.9071L133.906 7.04486L133.528 9.24454L132.741 9.10678ZM133.315 5.98723L133.621 4.0631L134.412 4.0542L134.097 6.12499L133.31 5.98723H133.315Z" fill="#D9A631"/>
<path d="M166.621 34.2721L154.378 36.0274C154.378 36.0274 155.982 30.2594 155.685 26.2022C154.92 15.9015 146.873 8.88031 146.873 8.88031C148.606 9.26248 150.285 9.86684 151.854 10.6712C159.129 15.0661 161.022 17.839 162.932 20.4697C164.634 22.816 165.625 25.5801 166.225 28.3885C166.643 30.3305 166.772 32.3035 166.616 34.2721M169.563 37.2405C170.776 30.9748 169.487 24.2425 165.439 18.6744C160.897 12.422 153.885 9.02253 146.713 8.84033C146.713 8.84033 152.707 18.4078 152.894 26.4955C153.054 33.5122 150.739 39.6935 150.739 39.6935L169.567 37.2405H169.563Z" fill="#D9A631"/>
<path d="M163.341 33.2189C164.318 33.2189 165.11 32.427 165.11 31.4503C165.11 30.4735 164.318 29.6816 163.341 29.6816C162.364 29.6816 161.573 30.4735 161.573 31.4503C161.573 32.427 162.364 33.2189 163.341 33.2189Z" fill="white"/>
<path d="M156.462 26.7221L158.604 26.4199L158.715 27.2109L156.502 27.5175L156.458 26.7221H156.462ZM159.582 26.2822L161.79 25.9578L161.901 26.7488L159.693 27.0732L159.582 26.2822ZM162.723 25.8645L164.648 25.5623L164.901 26.3133L162.835 26.6554L162.723 25.8645Z" fill="#D9A631"/>
<path d="M146.117 66.2805L140.665 55.18C140.665 55.18 146.646 54.9267 150.414 53.3847C159.973 49.4742 164.168 39.6534 164.168 39.6534C164.341 41.4176 164.288 43.204 164.003 44.9459C162.07 53.2247 160.017 55.8776 158.106 58.5084C156.404 60.8547 154.08 62.65 151.592 64.0897C149.872 65.0852 148.037 65.8184 146.122 66.2805M144.211 70C150.543 69.2179 156.547 65.9117 160.595 60.3436C165.137 54.0912 166.203 46.3724 164.159 39.4934C164.159 39.4934 156.916 48.1543 149.277 50.8251C142.651 53.1447 136.056 52.8514 136.056 52.8514L144.211 70Z" fill="#D9A631"/>
<path d="M147.788 64.0587C148.765 64.0587 149.557 63.2669 149.557 62.2901C149.557 61.3133 148.765 60.5215 147.788 60.5215C146.811 60.5215 146.019 61.3133 146.019 62.2901C146.019 63.2669 146.811 64.0587 147.788 64.0587Z" fill="white"/>
<path d="M150.161 54.2869L151.112 56.2332L150.397 56.5843L149.423 54.5757L150.165 54.2869H150.161ZM151.543 57.1176L152.534 59.1173L151.819 59.4683L150.828 57.4686L151.543 57.1176ZM152.912 59.9794L153.796 61.7169L153.161 62.1879L152.196 60.326L152.912 59.9749V59.9794Z" fill="#D9A631"/>
<path d="M109.336 56.6731L118.21 48.0566C118.21 48.0566 120.303 53.6691 122.929 56.7753C129.599 64.6586 140.238 65.6096 140.238 65.6096C138.611 66.3161 136.896 66.8183 135.154 67.0893C126.684 67.8092 123.525 66.6805 120.432 65.6718C117.677 64.7741 115.246 63.121 113.113 61.2013C111.633 59.8726 110.371 58.3573 109.336 56.6731ZM105.208 56.0021C107.909 61.7834 112.909 66.4716 119.454 68.6002C126.804 70.991 134.474 69.6179 140.385 65.5473C140.385 65.5473 129.911 61.3346 125.009 54.8956C120.756 49.3097 118.997 42.9507 118.997 42.9507L105.208 56.0021Z" fill="#D9A631"/>
<path d="M113.651 58.7973C114.628 58.7973 115.419 58.0054 115.419 57.0287C115.419 56.0519 114.628 55.26 113.651 55.26C112.674 55.26 111.882 56.0519 111.882 57.0287C111.882 58.0054 112.674 58.7973 113.651 58.7973Z" fill="white"/>
<path d="M121.996 56.8108L120.441 58.3172L119.885 57.744L121.494 56.1975L121.996 56.8152V56.8108ZM119.73 59.0015L118.134 60.5613L117.579 59.9881L119.174 58.4283L119.73 59.0015ZM117.432 61.1879L116.05 62.5655L115.406 62.1078L116.877 60.6146L117.432 61.1879Z" fill="#D9A631"/>
<path d="M107.114 18.7233L118.05 24.5002C118.05 24.5002 113.362 28.2241 111.22 31.6814C105.785 40.4623 108.167 50.8741 108.167 50.8741C106.989 49.5454 105.985 48.07 105.19 46.4969C101.888 38.6626 101.986 35.3119 101.986 32.0591C101.986 29.1617 102.808 26.3399 103.972 23.7181C104.776 21.9006 105.83 20.2297 107.109 18.7277M106.469 14.595C101.808 18.9499 98.8928 25.1534 98.8928 32.0369C98.8928 39.7646 102.568 46.6391 108.265 50.9985C108.265 50.9985 109.038 39.7335 113.642 33.0812C117.637 27.3131 123.143 23.6692 123.143 23.6692L106.469 14.5906V14.595Z" fill="#D9A631"/>
<path d="M108.105 24.7045C109.082 24.7045 109.873 23.9126 109.873 22.9359C109.873 21.9591 109.082 21.1672 108.105 21.1672C107.128 21.1672 106.336 21.9591 106.336 22.9359C106.336 23.9126 107.128 24.7045 108.105 24.7045Z" fill="white"/>
<path d="M110.891 30.8014L108.98 29.7837L109.354 29.0772L111.322 30.1304L110.891 30.7969V30.8014ZM108.109 29.3216L106.132 28.2862L106.505 27.5796L108.483 28.615L108.109 29.3216ZM105.319 27.8107L103.581 26.922L103.817 26.1665L105.687 27.1041L105.314 27.8107H105.319Z" fill="#D9A631"/>
<path d="M30.8897 24.1802C29.1433 24.1802 27.5613 24.5757 26.1793 25.7266C24.4773 27.1131 23.5664 29.055 23.4864 31.628C23.4064 33.4899 23.9619 35.1119 25.1484 36.4984C26.4148 37.9648 28.0413 38.7158 29.9788 38.7158H33.3827V39.8268C33.3427 41.0532 32.8272 41.6487 31.8007 41.6487H21.9799V41.6576H18.7804C17.5139 41.6576 16.603 40.8266 16.0075 39.3646H18.2249V35.5207H14.661C13.3946 35.5207 12.3236 35.2452 11.4526 34.7297C10.3817 34.0587 9.87064 33.1077 9.87064 31.8768C9.87064 30.1349 11.0971 28.9084 12.7991 28.9084C13.7901 28.9084 14.741 29.3839 15.7275 30.2948L17.905 27.3664C16.5185 25.6644 14.6566 24.8334 12.3192 24.8334C10.5772 24.8334 9.07076 25.3489 7.84427 26.3398C6.37782 27.5263 5.62683 29.1528 5.66682 31.2102C5.66682 32.4767 5.94233 33.5877 6.49781 34.4987C6.73333 34.8942 7.01328 35.2497 7.32879 35.5296C5.23132 35.6496 3.5649 36.5606 2.25843 38.2625C1.03195 39.8845 0.396484 41.7465 0.396484 43.8839C0.396484 46.0214 1.18748 48.0033 2.73392 49.5453C4.31591 51.1273 6.21784 51.9227 8.43529 51.9227H14.6121V48.0833H8.75081C7.67986 48.0833 6.69333 47.6878 5.8579 46.8968C4.94692 46.0658 4.47144 44.9949 4.47144 43.7284C4.47144 41.0754 6.05342 39.4535 8.86634 39.4535H11.6793C12.1547 41.2354 12.9057 42.6219 13.9767 43.6528C15.1632 44.8793 16.6296 45.5148 18.3716 45.5148H25.6194V45.5059H34.0848C36.5022 45.5059 37.6887 44.3594 37.6487 42.022V30.4993C37.6087 26.6598 35.3824 24.2024 30.8764 24.2024L30.8897 24.1802ZM33.3827 34.9119H30.6098C28.8678 34.9119 27.5213 33.3299 27.5613 31.388C27.7213 28.8151 28.9078 27.1486 30.7698 27.1486C31.6007 27.1486 32.6228 27.3753 33.0183 28.0418C33.3649 28.6284 33.3827 29.2105 33.3827 29.566C33.3827 29.8815 33.3427 31.6635 33.3827 34.9119Z" fill="white"/>
<path d="M86.4148 32.9744C84.9484 31.3924 83.0864 30.5969 80.7934 30.5969C76.2385 30.5969 73.5856 33.4498 73.5856 38.0403C73.5856 39.3068 73.8611 40.4932 74.4166 41.6442H66.7733C65.9823 41.6442 65.2668 41.2887 64.5958 40.5377C63.7648 39.7067 63.3693 38.5957 63.3693 37.2093C63.2893 34.5563 63.2494 32.4989 63.2494 31.0324H59.09L59.17 38.8757C59.17 39.7867 58.7745 40.4977 57.9435 41.0132C57.308 41.4487 56.637 41.6486 55.886 41.6486H48.9937C47.8828 41.6486 47.1717 40.5777 47.1717 39.1557V19.8696H42.9324V40.8176C42.9324 42.3241 43.4079 43.5106 44.2788 44.3416C45.0298 45.0926 45.9808 45.4881 47.0918 45.4881H57.468C59.6454 45.4481 61.7029 44.2216 62.3784 42.2797C62.5784 42.8751 62.9338 43.4261 63.3693 43.9816C64.2003 44.9726 65.2313 45.4881 66.4178 45.4881H81.2689C85.7038 45.4881 88.3167 42.6352 88.3167 38.0447C88.3167 36.1028 87.6813 34.4008 86.4148 32.9744ZM81.1489 42.0841C80.3179 42.0841 79.5669 41.7686 78.9715 41.0932C78.296 40.3421 77.9405 39.3112 77.9405 38.0847C77.9405 36.8582 78.216 35.8273 78.8115 35.0763C79.367 34.4053 80.078 34.0853 80.989 34.0853C81.8199 34.0853 82.5709 34.4008 83.1664 35.0763C83.8419 35.8273 84.1974 36.8582 84.1974 38.0847C84.1974 40.6177 82.8909 42.0841 81.1489 42.0841Z" fill="white"/>
<path d="M61.0854 27.9573C62.2363 27.9573 63.1695 27.0241 63.1695 25.8732C63.1695 24.7223 62.2363 23.7891 61.0854 23.7891C59.9344 23.7891 59.0012 24.7223 59.0012 25.8732C59.0012 27.0241 59.9344 27.9573 61.0854 27.9573Z" fill="white"/>
<path d="M30.9252 22.2603C32.0761 22.2603 33.0093 21.3271 33.0093 20.1762C33.0093 19.0252 32.0761 18.092 30.9252 18.092C29.7743 18.092 28.8411 19.0252 28.8411 20.1762C28.8411 21.3271 29.7743 22.2603 30.9252 22.2603Z" fill="white"/>
</svg>
