<svg width="66" height="64" viewBox="0 0 66 64" fill="none" xmlns="http://www.w3.org/2000/svg">
<path d="M40.8674 4.45941L38.9345 15.6021C38.9345 15.6021 34.3712 12.5748 30.7584 11.6916C21.5869 9.44512 13.2059 14.4596 13.2059 14.4596C14.0283 13.0612 15.0268 11.7684 16.1724 10.6324C22.0509 5.54743 24.995 4.68662 27.8239 3.7682C30.3423 2.94898 33.0304 2.86898 35.6417 3.14099C37.4497 3.32979 39.2002 3.7714 40.8674 4.45941ZM44.2819 2.73457C39.1746 -0.0878957 32.9568 -0.871915 26.9726 1.07373C20.2525 3.25618 15.3148 8.39551 13.1323 14.5813C13.1323 14.5813 23.1454 12.0692 30.2303 14.1972C36.3777 16.0405 41.0978 19.8006 41.0978 19.8006L44.2819 2.73457Z" fill="#245267"/>
<path d="M37.4818 8.12989C38.3743 8.12989 39.0978 7.40636 39.0978 6.51385C39.0978 5.62134 38.3743 4.89782 37.4818 4.89782C36.5893 4.89782 35.8657 5.62134 35.8657 6.51385C35.8657 7.40636 36.5893 8.12989 37.4818 8.12989Z" fill="#D9A631"/>
<path d="M31.4304 11.1604L31.7728 9.21152L32.4928 9.33632L32.1344 11.346L31.4304 11.1604ZM31.9296 8.3219L32.272 6.30906L32.9921 6.43385L32.6496 8.44669L31.9296 8.3219ZM32.4544 5.47064L32.736 3.7106L33.4593 3.701L33.1712 5.59544L32.4512 5.47064H32.4544Z" fill="#245267"/>
<path d="M62.9095 31.3336L51.7157 32.9401C51.7157 32.9401 53.1845 27.6664 52.9093 23.9575C52.2117 14.5396 44.8515 8.1203 44.8515 8.1203C46.4355 8.46911 47.9716 9.01952 49.4084 9.75873C56.0614 13.778 57.7894 16.3125 59.5367 18.7189C61.0951 20.863 62.0007 23.3911 62.5479 25.9575C62.9287 27.7336 63.0471 29.5352 62.9063 31.3368M65.6008 34.0505C66.708 28.3224 65.5304 22.1654 61.8311 17.0741C57.6774 11.3556 51.2645 8.24831 44.7075 8.0851C44.7075 8.0851 50.1893 16.8309 50.3589 24.2295C50.5029 30.6456 48.3876 36.297 48.3876 36.297L65.604 34.0537L65.6008 34.0505Z" fill="#245267"/>
<path d="M59.9078 30.3672C60.8003 30.3672 61.5239 29.6437 61.5239 28.7512C61.5239 27.8587 60.8003 27.1351 59.9078 27.1351C59.0153 27.1351 58.2917 27.8587 58.2917 28.7512C58.2917 29.6437 59.0153 30.3672 59.9078 30.3672Z" fill="#D9A631"/>
<path d="M53.6196 24.4311L55.5813 24.1559L55.6837 24.8791L53.6612 25.1575L53.6196 24.4311ZM56.4709 24.0311L58.4901 23.7367L58.5926 24.4599L56.5733 24.7543L56.4709 24.0311ZM59.3446 23.647L61.1046 23.3718L61.335 24.0599L59.4438 24.3703L59.3414 23.647H59.3446Z" fill="#245267"/>
<path d="M44.1602 60.6015L39.1745 50.4509C39.1745 50.4509 44.6434 50.2173 48.0867 48.8092C56.8261 45.2347 60.6598 36.2521 60.6598 36.2521C60.8166 37.865 60.7686 39.5002 60.5094 41.0907C58.743 48.6588 56.8677 51.0845 55.1173 53.4941C53.5589 55.6382 51.434 57.2798 49.162 58.5951C47.5907 59.5071 45.9139 60.1759 44.157 60.5983M42.4098 64C48.1987 63.2832 53.69 60.2623 57.3893 55.1678C61.543 49.4492 62.5158 42.3931 60.647 36.1049C60.647 36.1049 54.0229 44.0219 47.0403 46.4668C40.9826 48.5884 34.9536 48.3196 34.9536 48.3196L42.4066 64H42.4098Z" fill="#245267"/>
<path d="M45.6897 58.5695C46.5823 58.5695 47.3058 57.8459 47.3058 56.9534C47.3058 56.0609 46.5823 55.3374 45.6897 55.3374C44.7972 55.3374 44.0737 56.0609 44.0737 56.9534C44.0737 57.8459 44.7972 58.5695 45.6897 58.5695Z" fill="#D9A631"/>
<path d="M47.8561 49.6349L48.7234 51.4141L48.0674 51.7341L47.1777 49.8973L47.8561 49.6349ZM49.1202 52.2237L50.0258 54.0542L49.3698 54.3742L48.4642 52.5437L49.1202 52.2237ZM50.3714 54.8382L51.1778 56.4286L50.5954 56.8606L49.7154 55.1582L50.3714 54.8382Z" fill="#245267"/>
<path d="M10.5307 51.8173L18.643 43.9387C18.643 43.9387 20.5566 49.0684 22.9567 51.9101C29.056 59.1199 38.7842 59.9871 38.7842 59.9871C37.2994 60.6335 35.7313 61.0943 34.1345 61.3407C26.3903 62 23.5039 60.9663 20.6718 60.0447C18.1533 59.2255 15.9325 57.7119 13.9804 55.9582C12.6268 54.7422 11.4716 53.3565 10.5275 51.8173M6.75467 51.2061C9.22513 56.4926 13.7948 60.7807 19.7822 62.7264C26.5023 64.9088 33.5169 63.6544 38.9186 59.9327C38.9186 59.9327 29.3408 56.0798 24.8575 50.1917C20.9694 45.0876 19.3598 39.2698 19.3598 39.2698L6.75146 51.2029L6.75467 51.2061Z" fill="#245267"/>
<path d="M14.4764 53.7598C15.3689 53.7598 16.0924 53.0362 16.0924 52.1437C16.0924 51.2512 15.3689 50.5277 14.4764 50.5277C13.5839 50.5277 12.8604 51.2512 12.8604 52.1437C12.8604 53.0362 13.5839 53.7598 14.4764 53.7598Z" fill="#D9A631"/>
<path d="M22.1021 51.9421L20.6781 53.3182L20.1693 52.7933L21.6414 51.3789L22.0989 51.9421H22.1021ZM20.0317 53.9422L18.5725 55.3662L18.0637 54.8414L19.5229 53.4174L20.0317 53.9422ZM17.9324 55.9422L16.6684 57.1998L16.0764 56.7806L17.4236 55.4174L17.9324 55.9422Z" fill="#245267"/>
<path d="M8.49546 17.1189L18.4957 22.399C18.4957 22.399 14.2076 25.8039 12.2491 28.9656C7.27942 36.9946 9.45868 46.5148 9.45868 46.5148C8.38346 45.302 7.46183 43.9515 6.73542 42.5115C3.71455 35.3497 3.80734 32.2841 3.80734 29.308C3.80734 26.6583 4.55938 24.0791 5.625 21.679C6.36102 20.0182 7.32423 18.4885 8.49546 17.1157M7.90986 13.3364C3.64736 17.3205 0.981689 22.9911 0.981689 29.2856C0.981689 36.3546 4.34178 42.6363 9.5515 46.6236C9.5515 46.6236 10.2555 36.3258 14.47 30.2424C18.1245 24.9655 23.1582 21.6374 23.1582 21.6374L7.91306 13.3332L7.90986 13.3364Z" fill="#245267"/>
<path d="M9.40438 22.5878C10.2969 22.5878 11.0204 21.8643 11.0204 20.9718C11.0204 20.0793 10.2969 19.3558 9.40438 19.3558C8.51187 19.3558 7.78833 20.0793 7.78833 20.9718C7.78833 21.8643 8.51187 22.5878 9.40438 22.5878Z" fill="#D9A631"/>
<path d="M11.9515 28.1624L10.2043 27.2343L10.5467 26.5911L12.3483 27.5543L11.9547 28.1656L11.9515 28.1624ZM9.40745 26.8119L7.59944 25.8647L7.94183 25.2215L9.74988 26.1687L9.40745 26.8119ZM6.857 25.4327L5.26978 24.6199L5.48419 23.9287L7.19623 24.7863L6.8538 25.4295L6.857 25.4327Z" fill="#245267"/>
</svg>
